<?xml version="1.0" standalone="no"?><!DOCTYPE svg PUBLIC "-//W3C//DTD SVG 1.1//EN" "http://www.w3.org/Graphics/SVG/1.1/DTD/svg11.dtd"><svg t="1751975445507" class="icon" viewBox="0 0 1426 1024" version="1.1" xmlns="http://www.w3.org/2000/svg" p-id="5759" xmlns:xlink="http://www.w3.org/1999/xlink" width="278.515625" height="200"><path d="M797.785733 818.227789s-38.043501-65.910366-98.913104-38.043502c-60.822048 27.961974 2.567936 104.001422 25.346483 73.519067 0 0-12.649464-22.826101 10.129082-17.737783 0 0 20.305719 25.346483-7.6087 38.043502-27.914419 12.649464-63.389984 0-73.519067-60.917157 0 0 0-60.822048 83.648149-58.301666 0 0-17.690228-35.52312-10.129082-70.998685 0 0-83.695703 0-78.607385-144.565305 0 0-78.607385 30.434801-116.650886-45.604648 0 0-114.130504 17.737783-149.60607-96.392721 0 0-93.824786 0-98.913104-98.913104 0 0-93.824786-15.217401-109.042186 76.087003 0 0-65.957921 2.520382-93.824786 63.389984-27.866865 60.869602 22.778547 121.739205 48.172584 116.650886 0 0-30.482356 91.256849 30.434801 124.259587 60.869602 32.955183 103.953868 17.737783 119.171269 2.520382 0 0 68.478303 55.828838 119.218823-10.176637 50.692966-65.910366-27.914419-162.303088-81.175322-141.949814-53.260902 20.258165-43.084265 65.910366-12.697018 60.869602 0 0 7.6087-25.394037 25.346483-10.129082 0 0 0 40.563883-32.955184 27.866864-32.955183-12.649464-48.220138-50.692966-7.6087-86.16853 40.563883-35.52312 136.956605 17.737783 134.388669 60.822048 0 0 93.824786-7.6087 139.476987 43.131819 45.652202 50.74052 35.52312 164.871025-27.914419 195.258272 0 0-86.216085 60.917157-180.040871-2.520382 0 0-65.910366 43.084265-114.08295 0 0 0-38.043501-32.955183-78.55983-25.346483 0 0-12.744573-20.305719 5.040764-20.305719s63.389984 5.088318 81.127767 32.955183c0 0 58.34922 30.434801 103.953867-5.040764 0 0 91.304404 50.692966 147.133242 17.737783 55.781284-32.955183 93.824786-58.301666 58.301666-164.82347 0 0-25.346483-55.781284-129.347905-53.213348l2.520382 20.258164s114.130504 0 106.521804 86.216086c-7.6087 86.216085-109.042186 126.827523-195.305825 55.781284 0 0-27.866865 43.084265-55.73373 32.955183-27.914419-10.129082-55.828838-40.563883-93.824785-48.172584-38.043501-7.561146-76.087003 12.697019-91.304404 27.914419-15.217401 15.217401-60.869602 40.563883-98.865549 0 0 0-20.258165 55.781284 88.736467 96.392722 0 0 83.695703-33.002738 139.476987 38.043502 55.828838 71.046239 109.042186 58.301666 109.042186 58.301666s30.434801 71.046239 111.610123 53.260902c81.127767-17.737783 27.914419-78.654939 124.259586-58.349221 0 0 45.652202 50.74052 86.216086 48.220139 40.563883-2.520382 60.869602-40.563883 60.869602-40.563884s101.433486 22.778547 136.956605-25.346483c35.52312-48.172584 10.129082-114.130504-60.869602-126.827523zM212.010919 491.10123c-17.737783 22.778547 5.040764 73.519067 5.040764 73.519067-32.955183 0-58.301666-86.168531 17.785337-116.603332 76.087003-30.434801 109.042186 20.258165 109.042186 20.258165-81.127767-33.002738-114.130504 0-131.868287 22.873655z m431.080426 425.992108c-45.652202-30.434801-50.692966-88.736467-10.129082-129.347905 0 0-30.434801 58.396775-5.088319 88.784022 25.346483 30.434801 43.084265 45.652202 108.994632 25.346483 0 0-48.125029 45.652202-93.777231 15.2174z" fill="#D0BE92" p-id="5760"></path><path d="M392.05179 384.626981s22.778547 81.080213 98.913103 91.256849c76.039449 10.129082 144.517751-10.176637 126.779969-121.691651 0 0-32.955183-81.127767-131.868287-38.043501 0 0-20.305719 17.737783-17.785337 38.043501 2.567936 20.305719 17.785337 32.955183 33.002738 17.737783 0 0 10.176637-22.826101 22.826101-12.744573 0 0 7.6087 32.955183-22.826101 32.955183 0 0-40.563883 15.217401-50.692966-37.995947 0 0-15.217401-50.74052 73.519067-71.046239 0 0 15.217401-45.652202 58.34922-58.301666 43.13182-12.697019 119.171268 7.6087 136.956605 70.998685 0 0 40.563883 7.6087 58.301666 33.002737 17.785337 25.346483 0 68.478303-30.434801 58.301666 0 0-30.434801-10.129082-5.088318-22.826101l20.258164 2.520382s12.697019-32.955183-27.866864-48.172583c-40.563883-15.217401-101.433486 10.176637-103.953868 65.95792-2.567936 55.73373 40.563883 116.698441 111.562568 103.953868 0 0 55.781284 0 68.478303-55.781284 0 0 68.478303-7.6087 91.304403-48.172584 22.826101-40.611438 30.434801-73.519067 5.088318-119.218822-25.346483-45.652202-96.392722-53.260902-96.392721-53.260903s-2.520382-45.652202-45.652202-60.869602c-43.13182-15.264955-78.607385-32.955183-144.565306-5.040764 0 0-98.865549-83.695703-192.737889 20.258165 0 0-68.478303-17.737783-121.691651 50.692965 0 0-53.260902 152.174006 86.216086 167.391407z" fill="#D0BE92" p-id="5761"></path><path d="M698.872629 295.842959s-15.217401-43.13182-76.039449-55.781284c0 0-55.781284-10.176637-78.607384 45.604647 0 0 55.781284 0 83.695703 48.172584 0 0 32.955183-35.475565 70.998684-38.043501zM554.354878 488.580848s2.520382 32.955183 58.301666 38.091056c55.828838 4.99321 73.519067-27.914419 73.519066-27.914419s-45.604647-7.6087-60.822048-58.34922c0 0-25.394037 53.308456-70.998684 48.172583zM1350.605364 108.193388c73.566621 2.520382 76.087003-55.828838 76.087003-55.828838-73.519067 40.611438-131.868287-2.520382-154.694388-17.737783-22.826101-15.217401-86.216085-20.305719-116.698441-5.088318-30.387247 15.217401-35.475565 73.519067-17.690228 88.784021 17.690228 15.217401 17.690228 43.084265 17.690228 43.084266-12.649464 30.434801-50.692966 25.346483-78.55983 20.305719-27.914419-5.088318-35.52312-30.434801-27.91442-45.699756 7.6087-15.217401 32.955183-27.866865 2.567937-65.910367-30.434801-38.043501-78.607385-20.305719-78.607385-20.305719C962.561649 16.84143 914.436619 1.62403 914.436619 1.62403c-58.34922-10.129082-88.784022 30.434801-88.784021 30.434801-106.47425 2.520382-101.433486 86.216085-101.433486 86.216085 81.175321 0 96.392722 55.781284 96.392722 55.781284 32.955183 7.6087 81.127767-2.520382 86.216085-40.563883 5.040764-38.043501-27.914419-43.13182-48.172584-35.52312-20.305719 7.6087-12.649464 32.955183-12.649464 32.955183 7.561146-7.6087 15.217401-2.567936 15.217401-2.567936 10.129082 15.217401-10.176637 22.826101-10.176637 22.826101-40.516329 2.520382-27.866865-43.084265-27.866865-43.084266 5.088318-27.961974 50.74052-50.74052 88.736467-20.305719 38.043501 30.434801 7.6087 76.087003 7.608701 76.087003-33.002738 40.563883-91.304404 30.434801-91.304404 30.434802 68.478303 17.785337 104.001422 63.389984 111.610123 114.130504 7.6087 50.692966-20.305719 86.26364-20.305719 86.26364 17.737783-7.6087 27.914419 5.040764 32.955183 15.2174 5.088318 10.176637 35.475565 12.649464 35.475565 12.649464 93.87234 20.305719 119.218823-43.084265 119.218823-43.084265-70.95113-93.87234 12.744573-129.347905 48.172583-124.259587 35.52312 5.040764 53.260902 32.955183 45.699757 60.869603-7.6087 27.914419-30.434801 12.697019-30.434802 12.697018-12.697019-12.697019 12.697019-22.873655 12.697019-22.873655 7.6087-30.434801-17.737783-38.043501-53.260902-35.475565-35.52312 2.567936-53.213348 78.654939 5.088318 111.610122s93.824786-15.217401 93.824786-15.2174c81.127767 27.961974 103.953868 0 124.259587-35.475565 20.258165-35.52312-12.649464-81.127767-12.649465-81.127767 27.914419-15.217401 12.649464-68.478303-22.826101-73.566621-35.52312-5.040764-48.220138-27.866865-48.220138-27.866865-12.649464-30.434801 7.656255-43.13182 81.175322-40.563884z m-299.212139 266.256956c-55.828838-15.264955-40.563883-88.784022-40.563884-88.784022 25.346483-78.559831 103.953868-63.34243 103.953868-63.34243-144.565306 37.995947-63.389984 152.126452-63.389984 152.126452zM1188.302276 582.35808s0-73.519067-91.304404-101.433486c-91.304404-27.866865-142.044924 45.699756-126.827523 93.824785 15.217401 48.172584 38.043501 63.389984 76.087003 63.389985s45.652202-12.697019 48.172584-43.084266c2.567936-30.482356-30.387247-22.826101-30.387247-22.826101s-15.217401 27.961974-25.346483-2.520382c0 0 0-25.394037 35.475565-15.2174 35.475565 10.081528 45.652202 48.172584 32.907629 68.430748-12.697019 20.305719-111.562568 91.256849-157.21477-55.73373 0 0-32.955183 45.604647-88.736467 30.434802-55.73373-15.264955-78.607385-81.175321-27.866865-111.610123 0 0 22.778547-10.129082 40.563883 0 17.737783 10.129082 7.6087 33.002738-2.520381 38.043502 0 0-20.305719 5.088318-12.697019-17.785337 0 0-15.217401-20.258165-33.002738 15.2174-17.737783 35.52312 27.914419 63.389984 53.260902 58.349221 25.346483-5.088318 116.650886-20.258165 73.519067-139.524542 0 0-20.258165-38.043501-68.478303-17.737783 0 0-22.826101 17.737783-58.34922 22.826101 0 0-7.561146 73.519067-114.08295 63.34243 0 0-22.826101 25.394037-43.084266 27.914419 0 0-30.434801 103.953868 73.519067 139.524542 0 0-7.6087 91.256849 50.74052 106.521804 0 0 27.914419 20.258165 76.087003 2.472828 0 0 20.258165 65.957921 101.433486 71.046239 81.175321 5.040764 111.610122-55.828838 111.610122-55.828839s73.519067 35.475565 119.218823-7.6087c45.652202-43.084265 86.216085-162.303088-12.697018-210.523226z m-251.08711 114.130504s-136.909051 27.914419-124.212033-101.385931c0 0 27.914419 124.259587 131.868288 73.519066 0 0 58.301666 96.345168 187.649571 25.346483 0 0-88.784022 93.824786-195.305826 2.520382z" fill="#D0BE92" p-id="5762"></path></svg>